<?xml version="1.0" encoding="UTF-8" standalone="no"?>
<svg
   xmlns:dc="http://purl.org/dc/elements/1.1/"
   xmlns:cc="http://creativecommons.org/ns#"
   xmlns:rdf="http://www.w3.org/1999/02/22-rdf-syntax-ns#"
   xmlns:svg="http://www.w3.org/2000/svg"
   xmlns="http://www.w3.org/2000/svg"
   xmlns:sodipodi="http://sodipodi.sourceforge.net/DTD/sodipodi-0.dtd"
   xmlns:inkscape="http://www.inkscape.org/namespaces/inkscape"
   viewBox="-211.8 347.5 254 48.6"
   style="height: 40px;"
   version="1.1"
   id="svg6"
   sodipodi:docname="audioset_logo.svg"
   inkscape:version="0.92.2 (unknown)">
  <metadata
     id="metadata12">
    <rdf:RDF>
      <cc:Work
         rdf:about="">
        <dc:format>image/svg+xml</dc:format>
        <dc:type
           rdf:resource="http://purl.org/dc/dcmitype/StillImage" />
      </cc:Work>
    </rdf:RDF>
  </metadata>
  <defs
     id="defs10" />
  <sodipodi:namedview
     pagecolor="#ffffff"
     bordercolor="#666666"
     borderopacity="1"
     objecttolerance="10"
     gridtolerance="10"
     guidetolerance="10"
     inkscape:pageopacity="0"
     inkscape:pageshadow="2"
     inkscape:window-width="1679"
     inkscape:window-height="460"
     id="namedview8"
     showgrid="false"
     inkscape:zoom="3.2627132"
     inkscape:cx="170.58776"
     inkscape:cy="10.665639"
     inkscape:window-x="155"
     inkscape:window-y="271"
     inkscape:window-maximized="0"
     inkscape:current-layer="svg6" />
  <style
     id="style2">.st9{fill:#FFFFFF;}</style>
  <path
     class="st9"
     d="M-62.8 380.7c-.8 1.9-2.2 2.8-4.3 2.8-2 0-3-1.6-3-4.9v-13.5h-3.4v13.8c0 2.5.5 4.5 1.5 5.8 1 1.3 2.4 2 4.3 2 2.2 0 3.9-.8 5-2.2l.1 1.9h3.3v-21.1h-3.5v15.4zm19.7-13.6c0 .1.1.1 0 0-1.1-1.6-2.7-2.4-4.7-2.4-2.3 0-4 .9-5.2 2.6-1.2 1.7-1.8 4.2-1.8 7.4v2.2c0 3.1.7 5.5 1.9 7.2 1.2 1.7 3 2.5 5.1 2.5 2.1 0 3.7-.9 4.9-2.7l.2 2.3h3.2v-30H-43v10.9zm-3.8 16.5c-1.6 0-2.7-.6-3.4-1.7-.7-1.1-1.1-2.9-1.1-5.2v-2.1c0-2.3.4-4 1.1-5.1.7-1.1 1.9-1.7 3.4-1.7 1.7 0 2.9.8 3.8 2.5V381c-.8 1.7-2.1 2.6-3.8 2.6zm-141.1 2.8h3.3c.5 0 1-.4 1-.9V358c0-.5-.4-.9-1-.9h-3.3c-.5 0-1 .4-1 .9v27.5c0 .5.4.9 1 .9zm31.6 9.7h3.3c.5 0 1-.4 1-1v-46.6c0-.5-.4-1-1-1h-3.3c-.5 0-1 .4-1 1v46.6c0 .5.4 1 1 1zm-17.8-44.9h-3.3c-.5 0-1 .4-1 1v39.1c0 .5.4 1 1 1h3.3c.5 0 1-.4 1-1v-39.1c0-.5-.5-1-1-1zm-34.4 23c.3.4.5.8.7 1.4.2.6.2 1.2.2 1.9v4c0 1 .1 2 .3 2.9.2.9.6 1.8 1.1 2.6.5.8 1.2 1.5 2.1 2.1.9.6 2 1.1 3.3 1.5l.7-2.2c-.8-.2-1.4-.6-1.9-1s-.9-1-1.3-1.5c-.3-.6-.5-1.2-.7-2-.1-.7-.2-1.5-.2-2.3v-4c0-1.3-.3-2.5-.8-3.5-.5-1.1-1.3-1.9-2.5-2.5 1.1-.6 2-1.4 2.5-2.5.5-1 .8-2.2.8-3.5v-4.1c0-.8.1-1.5.2-2.3.1-.7.4-1.4.7-2 .3-.6.7-1.1 1.3-1.5s1.2-.8 1.9-1l-.7-2.2c-1.3.4-2.4.9-3.3 1.5-.9.6-1.6 1.3-2.1 2.1s-.9 1.6-1.1 2.6c-.2.9-.3 1.9-.3 2.9v4c0 1.4-.3 2.5-1 3.4-.7.8-1.7 1.2-3.2 1.2v2.8c.7 0 1.4.1 1.9.3.6.2 1.1.5 1.4.9zm119.7-16.4l-9.2 28.4h3.7l2.2-7.4h9.6l2.2 7.4h3.7l-9.2-28.4h-3zm-2.3 17.9l3.9-12.9 3.9 12.9h-7.8zm48.2-8.5s-.1 0 0 0zm65.8-2.5c-2.4 0-4.4.9-5.7 2.7s-2.1 4.3-2.1 7.4v2.6c0 3 .7 5.3 2.1 6.9 1.4 1.6 3.4 2.4 6.1 2.4 3.1 0 5.3-1 6.8-3.2l-1.8-2.2c-.7.8-1.4 1.4-2.2 1.8-.8.4-1.7.6-2.7.6-1.6 0-2.8-.5-3.7-1.5-.9-1-1.3-2.7-1.3-4.9v-.5h11.8v-2.3c0-3.3-.7-5.8-1.9-7.4-1-1.6-2.9-2.4-5.4-2.4zm4 9h-8.3c.1-2.1.5-3.6 1.2-4.6.7-1 1.8-1.5 3.2-1.5 1.3 0 2.2.4 2.9 1.3s1 2.3 1.1 4.3v.5zm-145.8-.9V370c-.7 0-1.4-.1-1.9-.3-.5-.2-1-.5-1.3-.9-.3-.4-.6-.9-.7-1.5-.2-.6-.2-1.2-.2-1.9v-4c0-1-.1-2-.3-2.9-.2-.9-.6-1.8-1.1-2.6-.5-.8-1.3-1.5-2.1-2.1-.9-.6-2-1.1-3.3-1.5l-.7 2.2c.8.2 1.4.6 1.9 1s.9 1 1.3 1.5c.3.6.5 1.2.7 2 .1.7.2 1.5.2 2.3v4c0 1.4.3 2.6.8 3.6.6 1 1.5 1.9 2.7 2.4-1.2.6-2.1 1.4-2.7 2.4-.6 1-.8 2.3-.8 3.6v4c0 .8-.1 1.6-.2 2.3-.1.7-.4 1.4-.7 2-.3.6-.8 1.1-1.3 1.5-.5.4-1.2.8-2 1l.8 2.2c1.3-.4 2.4-.9 3.3-1.5.9-.6 1.6-1.3 2.1-2.1s.9-1.6 1.1-2.6c.2-.9.3-1.9.3-2.9v-4c0-.7.1-1.3.2-1.9.2-.6.4-1.1.7-1.5.3-.4.8-.7 1.3-.9.5 0 1.2-.1 1.9-.1zm159.8 10.7c-.7 0-1.1-.2-1.4-.6-.3-.4-.4-1.1-.4-1.9v-13.1h3.2v-2.8H39V360h-3.4v5.1h-3.2v2.8h3.2V381c0 1.8.4 3.2 1.1 4.1s1.8 1.5 3.1 1.5c.8 0 1.6-.1 2.4-.4v-2.9c-.5.2-1 .2-1.4.2zM3 360.5c1.6 0 2.8.5 3.7 1.4.8 1 1.3 2.3 1.3 4.1h3.6c0-1.6-.4-3-1.1-4.4-.7-1.3-1.7-2.4-3-3.1-1.3-.8-2.8-1.1-4.5-1.1-2.4 0-4.4.7-5.9 2.2s-2.3 3.3-2.3 5.6c0 1.3.3 2.5.8 3.5s1.3 1.9 2.4 2.7 2.6 1.5 4.6 2.2c2 .7 3.4 1.5 4.2 2.2s1.2 1.8 1.2 3.3c0 1.4-.4 2.5-1.2 3.3-.8.8-2 1.2-3.6 1.2-1.7 0-3-.5-4-1.5s-1.5-2.3-1.5-4.1H-6c0 1.7.4 3.2 1.2 4.5.8 1.3 1.9 2.3 3.3 3 1.4.7 2.9 1.1 4.6 1.1 2.6 0 4.6-.7 6.1-2.1 1.5-1.4 2.2-3.2 2.2-5.5 0-2.2-.6-4-1.8-5.3-1.2-1.3-3.2-2.5-6-3.4-1.8-.6-3.1-1.4-4-2.2-.9-.8-1.3-1.8-1.3-3 0-1.5.4-2.6 1.2-3.4s2-1.2 3.5-1.2zm-165.7-5.2c0-.5-.4-1-1-1h-3.3c-.5 0-1 .4-1 1v33c0 .5.4 1 1 1h3.3c.5 0 1-.4 1-1v-33zm130.5 2.1c-.7 0-1.2.2-1.5.6-.3.4-.5.9-.5 1.5s.2 1.1.5 1.5c.3.4.8.6 1.5.6s1.2-.2 1.5-.6.5-.9.5-1.5-.2-1.1-.5-1.5c-.4-.4-.9-.6-1.5-.6zm-1.8 7.7h3.5v21.1H-34zm-107.6 20.3v-27.3c0-.5-.4-1-1-1h-3.3c-.5 0-1 .4-1 1v27.3c0 .5.4 1 1 1h3.3c.5 0 1-.4 1-1zm123.9-20.7c-2.4 0-4.4.9-5.9 2.7-1.5 1.8-2.2 4.2-2.2 7.3v2.3c.1 3 .8 5.3 2.3 7 1.5 1.7 3.4 2.6 5.9 2.6 2.5 0 4.5-.9 5.9-2.7 1.5-1.8 2.2-4.2 2.2-7.3v-2.2c0-3-.8-5.4-2.3-7.1-1.5-1.7-3.4-2.6-5.9-2.6zm4.8 12.4c-.1 4.4-1.7 6.6-4.7 6.6-1.4 0-2.6-.6-3.4-1.9-.9-1.2-1.3-3-1.3-5.1v-2c0-2.1.4-3.8 1.3-5.1.9-1.3 2-1.9 3.4-1.9 1.5 0 2.6.6 3.5 1.9.9 1.2 1.3 3 1.3 5.1v2.4z"
     id="path4"
     style="fill:#214478" />
</svg>
