<?xml version="1.0" encoding="UTF-8" standalone="no"?>
<!DOCTYPE svg PUBLIC "-//W3C//DTD SVG 1.1//EN" "http://www.w3.org/Graphics/SVG/1.1/DTD/svg11.dtd">
<svg width="100%" height="100%" viewBox="0 0 350 200" version="1.1" xmlns="http://www.w3.org/2000/svg" xmlns:xlink="http://www.w3.org/1999/xlink" xml:space="preserve" style="fill-rule:evenodd;clip-rule:evenodd;stroke-linejoin:round;stroke-miterlimit:1.41421;">
    <g id="FS" transform="matrix(1,0,0,1,-122.638,-197.638)">
        <g transform="matrix(1,0,0,1,75.9357,12.1289)">
            <clipPath id="_clip1">
                <rect x="57.201" y="230.824" width="147.839" height="113.45"/>
            </clipPath>
            <g clip-path="url(#_clip1)">
                <path d="M215.415,280.824L215.415,277.519C215.415,276.754 215.672,276.053 216.187,275.419C216.702,274.785 217.635,274.485 218.988,274.521C220.34,274.556 221.305,274.611 221.879,274.682L221.879,266.35C220.969,266.279 220.251,266.224 219.725,266.189C219.197,266.153 218.611,266.135 217.965,266.135C212.29,266.135 208.711,267.308 207.227,269.654C205.813,271.234 205.107,274.121 205.107,278.31L205.107,280.806L194.309,280.806C191.867,280.824 189.628,281.634 187.654,282.835C185.694,284.058 183.967,285.696 182.855,287.871L181.988,289.598L179.779,280.573C179.529,279.586 179.249,278.729 178.71,277.832C178.431,277.383 178.077,276.904 177.478,276.434C176.897,275.97 175.952,275.529 174.89,275.535C173.831,275.529 172.894,275.965 172.315,276.42C170.653,277.857 170.451,279.056 169.99,280.523L166.55,293.948L161.451,256.672C161.321,255.75 161.183,255.008 160.912,254.219C160.763,253.816 160.606,253.397 160.184,252.818C159.967,252.531 159.669,252.187 159.165,251.849C158.671,251.515 157.899,251.21 157.06,251.217C156.227,251.213 155.466,251.511 154.978,251.836C154.112,252.426 153.825,252.959 153.583,253.36C152.975,254.547 152.859,255.371 152.642,256.599L144.106,311.799L140.819,266.399C140.75,265.496 140.67,264.781 140.496,264.047C140.397,263.666 140.306,263.29 139.992,262.701C139.822,262.407 139.597,262.035 139.099,261.598C138.627,261.173 137.709,260.677 136.649,260.687C135.604,260.683 134.768,261.132 134.312,261.502C133.502,262.183 133.326,262.655 133.124,263.025C132.65,264.09 132.533,264.857 132.326,266.039L128.808,288.221L123.357,236.399C123.26,235.507 123.159,234.802 122.967,234.084C122.859,233.714 122.762,233.35 122.446,232.786C122.278,232.505 122.057,232.149 121.573,231.727C121.114,231.32 120.221,230.817 119.136,230.824C118.057,230.819 117.178,231.309 116.719,231.706C115.902,232.44 115.753,232.922 115.563,233.301C115.135,234.382 115.048,235.148 114.885,236.342L105.536,314.475L100.384,274.284C100.256,273.34 100.118,272.566 99.814,271.728C99.648,271.304 99.466,270.852 98.995,270.26C98.571,269.713 97.523,268.789 95.939,268.781C94.399,268.8 93.434,269.625 92.996,270.119C92.303,270.925 92.117,271.491 91.887,272.084C91.681,272.672 91.528,273.275 91.387,273.962L86.932,295.93L83.74,288.27C82.772,285.992 81.118,284.247 79.2,282.953C77.267,281.679 75.019,280.824 72.543,280.806L60.827,280.806C58.823,280.806 57.201,282.429 57.201,284.433C57.201,286.434 58.823,288.057 60.827,288.057L72.543,288.057C73.186,288.041 74.265,288.364 75.177,288.987C76.103,289.59 76.816,290.459 77.048,291.059L84.79,309.633C85.4,311.098 86.909,312 88.489,311.846C90.068,311.692 91.373,310.514 91.687,308.959L95.261,291.334L101.344,338.793C101.461,339.69 101.583,340.407 101.809,341.145C101.935,341.526 102.057,341.908 102.413,342.475C102.601,342.756 102.853,343.106 103.347,343.492C103.823,343.866 104.664,344.28 105.644,344.274C106.624,344.28 107.474,343.866 107.951,343.485C108.799,342.789 108.993,342.274 109.198,341.883C109.68,340.75 109.764,339.965 109.932,338.758L118.928,263.586L123.882,310.694C123.982,311.604 124.091,312.336 124.317,313.104C124.441,313.496 124.565,313.901 124.941,314.491C125.137,314.783 125.406,315.147 125.915,315.53C126.405,315.905 127.242,316.283 128.17,316.276C129.086,316.28 129.882,315.924 130.357,315.578C131.203,314.948 131.443,314.44 131.666,314.053C132.214,312.922 132.332,312.125 132.549,310.922L135.45,292.629L138.776,338.565C138.844,339.463 138.923,340.174 139.094,340.907C139.191,341.282 139.281,341.655 139.588,342.239C139.756,342.533 139.975,342.903 140.469,343.344C140.932,343.768 141.84,344.274 142.908,344.274L142.94,344.274C144.004,344.276 144.848,343.813 145.301,343.436C146.107,342.744 146.272,342.278 146.471,341.908C146.932,340.852 147.046,340.09 147.248,338.908L156.872,276.685L161.108,307.655C161.247,308.627 161.408,309.444 161.776,310.338C161.975,310.787 162.212,311.282 162.752,311.864C163.252,312.42 164.325,313.147 165.671,313.139C166.963,313.135 167.912,312.52 168.416,312.049C169.196,311.305 169.467,310.701 169.75,310.098C170.013,309.496 170.207,308.879 170.385,308.188L174.829,290.842L175.939,295.377C176.223,296.5 176.605,297.532 177.364,298.533C178.073,299.506 179.522,300.561 181.276,300.545C182.82,300.537 184.013,299.813 184.786,299.088C185.582,298.34 186.122,297.51 186.593,296.584L189.334,291.125C189.622,290.516 190.442,289.621 191.459,289.006C192.464,288.371 193.635,288.041 194.309,288.057L205.251,288.057L205.251,319.61L215.415,319.61L215.415,288.043L222.131,288.043L222.131,280.824L215.415,280.824Z" style="fill:white;fill-rule:nonzero;"/>
            </g>
        </g>
        <g transform="matrix(1.54301,0,0,1.6073,-507.992,133.394)">
            <text x="506.393px" y="123.89px" style="font-family:'HelveticaNeueLTStd-Hv', 'Helvetica Neue LT Std', sans-serif;font-weight:750;font-size:62.393px;fill:white;">F<tspan x="541.396px 579.892px " y="123.89px 123.89px ">SD</tspan></text>
        </g>
    </g>
</svg>
