<?xml version="1.0" encoding="UTF-8" standalone="no"?>
<!DOCTYPE svg PUBLIC "-//W3C//DTD SVG 1.1//EN" "http://www.w3.org/Graphics/SVG/1.1/DTD/svg11.dtd">
<svg width="100%" height="100%" viewBox="0 0 500 200" version="1.1" xmlns="http://www.w3.org/2000/svg" xmlns:xlink="http://www.w3.org/1999/xlink" xml:space="preserve" style="fill-rule:evenodd;clip-rule:evenodd;stroke-linejoin:round;stroke-miterlimit:1.41421;">
    <g id="FS" transform="matrix(1,0,0,1,-47.638,-197.638)">
        <g transform="matrix(1,0,0,1,2.47,10.089)">
            <path d="M245.941,279.549C246.072,279.561 246.366,279.579 246.821,279.604L246.821,290.091C246.174,290.018 245.6,289.971 245.097,289.946C244.594,289.923 244.187,289.911 243.876,289.911C239.758,289.911 236.992,291.251 235.58,293.932C234.79,295.44 234.395,297.764 234.395,300.899L234.395,319.61L224.088,319.61L224.088,280.465L233.856,280.465L233.856,287.288C235.437,284.679 236.813,282.895 237.986,281.938C239.901,280.334 242.391,279.531 245.456,279.531C245.648,279.531 245.809,279.537 245.941,279.549" style="fill:white;fill-rule:nonzero;"/>
        </g>
        <g transform="matrix(1,0,0,1,2.47,10.089)">
            <path d="M260.609,290.1C259.162,291.59 258.254,293.61 257.882,296.159L275.516,296.159C275.33,293.442 274.421,291.381 272.789,289.973C271.157,288.567 269.134,287.864 266.719,287.864C264.091,287.864 262.055,288.61 260.609,290.1M275.921,281.258C278.651,282.48 280.907,284.411 282.686,287.049C284.289,289.375 285.329,292.073 285.804,295.141C286.08,296.94 286.192,299.53 286.142,302.911L257.631,302.911C257.79,306.838 259.154,309.59 261.725,311.17C263.288,312.153 265.169,312.643 267.368,312.643C269.699,312.643 271.594,312.045 273.051,310.848C273.846,310.202 274.548,309.303 275.158,308.155L285.608,308.155C285.332,310.477 284.067,312.834 281.813,315.229C278.306,319.036 273.398,320.94 267.086,320.94C261.876,320.94 257.28,319.334 253.297,316.123C249.315,312.913 247.324,307.688 247.324,300.45C247.324,293.67 249.121,288.469 252.716,284.851C256.311,281.232 260.978,279.424 266.715,279.424C270.122,279.424 273.191,280.035 275.921,281.258" style="fill:white;fill-rule:nonzero;"/>
        </g>
        <g transform="matrix(1,0,0,1,2.47,10.089)">
            <path d="M339.588,307.112C339.805,308.932 340.275,310.225 340.996,310.991C342.271,312.356 344.628,313.038 348.068,313.038C350.089,313.038 351.695,312.739 352.886,312.141C354.076,311.542 354.672,310.645 354.672,309.448C354.672,308.298 354.192,307.425 353.234,306.825C352.274,306.227 348.704,305.198 342.526,303.737C338.077,302.635 334.943,301.258 333.124,299.606C331.304,297.979 330.395,295.633 330.395,292.567C330.395,288.954 331.816,285.846 334.659,283.248C337.503,280.651 341.504,279.352 346.662,279.352C351.557,279.352 355.546,280.327 358.629,282.279C361.712,284.231 363.482,287.6 363.938,292.389L353.702,292.389C353.559,291.071 353.187,290.03 352.586,289.264C351.457,287.876 349.536,287.18 346.824,287.18C344.591,287.18 343.001,287.528 342.053,288.223C341.105,288.917 340.63,289.731 340.63,290.665C340.63,291.839 341.134,292.688 342.143,293.214C343.151,293.766 346.713,294.712 352.829,296.051C356.906,297.008 359.963,298.458 361.998,300.397C364.01,302.36 365.015,304.815 365.015,307.758C365.015,311.637 363.569,314.803 360.679,317.258C357.787,319.712 353.319,320.94 347.275,320.94C341.109,320.94 336.557,319.639 333.618,317.044C330.679,314.446 329.209,311.135 329.209,307.112L339.588,307.112Z" style="fill:white;fill-rule:nonzero;"/>
        </g>
        <g transform="matrix(1,0,0,1,2.47,10.089)">
            <path d="M393.19,309.165C394.794,307.038 395.596,304.013 395.596,300.093C395.596,296.171 394.794,293.153 393.19,291.038C391.586,288.923 389.288,287.864 386.294,287.864C383.301,287.864 380.998,288.923 379.381,291.038C377.765,293.153 376.958,296.171 376.958,300.093C376.958,304.013 377.765,307.038 379.381,309.165C380.998,311.292 383.301,312.356 386.294,312.356C389.288,312.356 391.586,311.292 393.19,309.165M401.378,314.821C398.075,318.901 393.058,320.94 386.331,320.94C379.602,320.94 374.587,318.901 371.283,314.821C367.979,310.743 366.327,305.833 366.327,300.093C366.327,294.446 367.979,289.556 371.283,285.416C374.587,281.278 379.602,279.207 386.331,279.207C393.058,279.207 398.075,281.278 401.378,285.416C404.682,289.556 406.335,294.446 406.335,300.093C406.335,305.833 404.682,310.743 401.378,314.821" style="fill:white;fill-rule:nonzero;"/>
        </g>
        <g transform="matrix(1,0,0,1,2.47,10.089)">
            <path d="M418.902,280.465L418.902,304.059C418.902,306.286 419.165,307.964 419.688,309.089C420.618,311.075 422.44,312.069 425.156,312.069C428.633,312.069 431.016,310.657 432.303,307.831C432.969,306.299 433.303,304.276 433.303,301.762L433.303,280.465L443.682,280.465L443.682,319.61L433.735,319.61L433.735,314.081C433.639,314.2 433.4,314.559 433.018,315.157C432.636,315.757 432.183,316.284 431.658,316.737C430.058,318.174 428.512,319.157 427.02,319.682C425.527,320.21 423.779,320.473 421.773,320.473C415.996,320.473 412.104,318.389 410.098,314.223C408.976,311.924 408.416,308.538 408.416,304.059L408.416,280.465L418.902,280.465Z" style="fill:white;fill-rule:nonzero;"/>
        </g>
        <g transform="matrix(1,0,0,1,2.47,10.089)">
            <path d="M478.823,282.709C481.386,284.828 482.668,288.342 482.668,293.251L482.668,319.61L472.18,319.61L472.18,295.799C472.18,293.741 471.907,292.161 471.361,291.059C470.362,289.047 468.461,288.043 465.657,288.043C462.21,288.043 459.845,289.516 458.562,292.459C457.896,294.016 457.564,296.004 457.564,298.422L457.564,319.61L447.329,319.61L447.329,280.537L457.241,280.537L457.241,286.247C458.552,284.236 459.792,282.787 460.96,281.901C463.057,280.321 465.717,279.531 468.935,279.531C472.964,279.531 476.26,280.59 478.823,282.709" style="fill:white;fill-rule:nonzero;"/>
        </g>
        <g transform="matrix(1,0,0,1,2.47,10.089)">
            <path d="M510.783,308.979C512.291,306.825 513.045,304.036 513.045,300.612C513.045,295.825 511.836,292.401 509.418,290.34C507.933,289.096 506.209,288.473 504.246,288.473C501.253,288.473 499.056,289.604 497.656,291.868C496.256,294.129 495.555,296.938 495.555,300.29C495.555,303.905 496.267,306.795 497.692,308.961C499.116,311.129 501.277,312.211 504.175,312.211C507.071,312.211 509.274,311.135 510.783,308.979M508.268,281.094C510.112,282.135 511.608,283.578 512.758,285.421L512.758,266.746L523.137,266.746L523.137,319.61L513.188,319.61L513.188,314.188C511.728,316.51 510.064,318.198 508.197,319.25C506.329,320.305 504.007,320.831 501.229,320.831C496.656,320.831 492.807,318.981 489.683,315.284C486.559,311.584 484.997,306.838 484.997,301.043C484.997,294.364 486.535,289.108 489.611,285.277C492.688,281.447 496.8,279.531 501.948,279.531C504.318,279.531 506.425,280.052 508.268,281.094" style="fill:white;fill-rule:nonzero;"/>
        </g>
        <g transform="matrix(1,0,0,1,2.47,10.089)">
            <path d="M301.94,290.1C300.494,291.59 299.586,293.61 299.213,296.159L316.847,296.159C316.661,293.442 315.752,291.381 314.121,289.973C312.488,288.567 310.464,287.864 308.05,287.864C305.422,287.864 303.386,288.61 301.94,290.1M317.252,281.258C319.982,282.48 322.238,284.411 324.017,287.049C325.62,289.375 326.66,292.073 327.135,295.141C327.412,296.94 327.523,299.53 327.472,302.911L298.962,302.911C299.121,306.838 300.486,309.59 303.056,311.17C304.619,312.153 306.5,312.643 308.699,312.643C311.031,312.643 312.925,312.045 314.382,310.848C315.177,310.202 315.879,309.303 316.489,308.155L326.939,308.155C326.664,310.477 325.398,312.834 323.144,315.229C319.637,319.036 314.728,320.94 308.417,320.94C303.207,320.94 298.61,319.334 294.628,316.123C290.645,312.913 288.654,307.688 288.654,300.45C288.654,293.67 290.452,288.469 294.047,284.851C297.642,281.232 302.308,279.424 308.046,279.424C311.453,279.424 314.521,280.035 317.252,281.258" style="fill:white;fill-rule:nonzero;"/>
        </g>
        <g transform="matrix(1,0,0,1,2.47,10.089)">
            <path d="M215.415,280.824L215.415,277.519C215.415,276.754 215.672,276.053 216.187,275.419C216.702,274.785 217.635,274.485 218.988,274.521C220.34,274.556 221.305,274.611 221.879,274.682L221.879,266.35C220.969,266.279 220.251,266.224 219.725,266.189C219.197,266.153 218.611,266.135 217.965,266.135C212.29,266.135 208.711,267.308 207.227,269.654C205.813,271.234 205.107,274.121 205.107,278.31L205.107,280.806L194.309,280.806C191.867,280.824 189.628,281.634 187.654,282.835C185.694,284.058 183.967,285.696 182.855,287.871L181.988,289.598L179.779,280.573C179.529,279.586 179.249,278.729 178.71,277.832C178.431,277.383 178.077,276.904 177.478,276.434C176.897,275.97 175.952,275.529 174.89,275.535C173.831,275.529 172.894,275.965 172.315,276.42C170.653,277.857 170.451,279.056 169.99,280.523L166.55,293.948L161.451,256.672C161.321,255.75 161.183,255.008 160.912,254.219C160.763,253.816 160.606,253.397 160.184,252.818C159.967,252.531 159.669,252.187 159.165,251.849C158.671,251.515 157.899,251.21 157.06,251.217C156.227,251.213 155.466,251.511 154.978,251.836C154.112,252.426 153.825,252.959 153.583,253.36C152.975,254.547 152.859,255.371 152.642,256.599L144.106,311.799L140.819,266.399C140.75,265.496 140.67,264.781 140.496,264.047C140.397,263.666 140.306,263.29 139.992,262.701C139.822,262.407 139.597,262.035 139.099,261.598C138.627,261.173 137.709,260.677 136.649,260.687C135.604,260.683 134.768,261.132 134.312,261.502C133.502,262.183 133.326,262.655 133.124,263.025C132.65,264.09 132.533,264.857 132.326,266.039L128.808,288.221L123.357,236.399C123.26,235.507 123.159,234.802 122.967,234.084C122.859,233.714 122.762,233.35 122.446,232.786C122.278,232.505 122.057,232.149 121.573,231.727C121.114,231.32 120.221,230.817 119.136,230.824C118.057,230.819 117.178,231.309 116.719,231.706C115.902,232.44 115.753,232.922 115.563,233.301C115.135,234.382 115.048,235.148 114.885,236.342L105.536,314.475L100.384,274.284C100.256,273.34 100.118,272.566 99.814,271.728C99.648,271.304 99.466,270.852 98.995,270.26C98.571,269.713 97.523,268.789 95.939,268.781C94.399,268.8 93.434,269.625 92.996,270.119C92.303,270.925 92.117,271.491 91.887,272.084C91.681,272.672 91.528,273.275 91.387,273.962L86.932,295.93L83.74,288.27C82.772,285.992 81.118,284.247 79.2,282.953C77.267,281.679 75.019,280.824 72.543,280.806L60.827,280.806C58.823,280.806 57.201,282.429 57.201,284.433C57.201,286.434 58.823,288.057 60.827,288.057L72.543,288.057C73.186,288.041 74.265,288.364 75.177,288.987C76.103,289.59 76.816,290.459 77.048,291.059L84.79,309.633C85.4,311.098 86.909,312 88.489,311.846C90.068,311.692 91.373,310.514 91.687,308.959L95.261,291.334L101.344,338.793C101.461,339.69 101.583,340.407 101.809,341.145C101.935,341.526 102.057,341.908 102.413,342.475C102.601,342.756 102.853,343.106 103.347,343.492C103.823,343.866 104.664,344.28 105.644,344.274C106.624,344.28 107.474,343.866 107.951,343.485C108.799,342.789 108.993,342.274 109.198,341.883C109.68,340.75 109.764,339.965 109.932,338.758L118.928,263.586L123.882,310.694C123.982,311.604 124.091,312.336 124.317,313.104C124.441,313.496 124.565,313.901 124.941,314.491C125.137,314.783 125.406,315.147 125.915,315.53C126.405,315.905 127.242,316.283 128.17,316.276C129.086,316.28 129.882,315.924 130.357,315.578C131.203,314.948 131.443,314.44 131.666,314.053C132.214,312.922 132.332,312.125 132.549,310.922L135.45,292.629L138.776,338.565C138.844,339.463 138.923,340.174 139.094,340.907C139.191,341.282 139.281,341.655 139.588,342.239C139.756,342.533 139.975,342.903 140.469,343.344C140.932,343.768 141.84,344.274 142.908,344.274L142.94,344.274C144.004,344.276 144.848,343.813 145.301,343.436C146.107,342.744 146.272,342.278 146.471,341.908C146.932,340.852 147.046,340.09 147.248,338.908L156.872,276.685L161.108,307.655C161.247,308.627 161.408,309.444 161.776,310.338C161.975,310.787 162.212,311.282 162.752,311.864C163.252,312.42 164.325,313.147 165.671,313.139C166.963,313.135 167.912,312.52 168.416,312.049C169.196,311.305 169.467,310.701 169.75,310.098C170.013,309.496 170.207,308.879 170.385,308.188L174.829,290.842L175.939,295.377C176.223,296.5 176.605,297.532 177.364,298.533C178.073,299.506 179.522,300.561 181.276,300.545C182.82,300.537 184.013,299.813 184.786,299.088C185.582,298.34 186.122,297.51 186.593,296.584L189.334,291.125C189.622,290.516 190.442,289.621 191.459,289.006C192.464,288.371 193.635,288.041 194.309,288.057L205.251,288.057L205.251,319.61L215.415,319.61L215.415,288.043L222.131,288.043L222.131,280.824L215.415,280.824Z" style="fill:white;fill-rule:nonzero;"/>
        </g>
    </g>
</svg>
