<?xml version="1.0" encoding="UTF-8" standalone="no"?>
<!DOCTYPE svg PUBLIC "-//W3C//DTD SVG 1.1//EN" "http://www.w3.org/Graphics/SVG/1.1/DTD/svg11.dtd">
<svg width="100%" height="100%" viewBox="0 0 303 84" version="1.1" xmlns="http://www.w3.org/2000/svg" xmlns:xlink="http://www.w3.org/1999/xlink" xml:space="preserve" style="fill-rule:evenodd;clip-rule:evenodd;stroke-linejoin:round;stroke-miterlimit:1.41421;">
    <g id="Layer-1">
        <path d="M195.063,30.813L195.063,26.38L193.719,28.666L192.231,28.666L190.889,26.38L190.889,30.813L188.563,30.813L188.563,21.557L190.848,21.557L192.975,25.637L195.102,21.557L197.387,21.557L197.387,30.813L195.063,30.813Z" style="fill:white;fill-rule:nonzero;"/>
        <path d="M203.065,23.586L203.065,30.814L200.739,30.814L200.739,23.586L198.414,23.586L198.414,21.558L205.392,21.558L205.392,23.586L203.065,23.586Z" style="fill:white;fill-rule:nonzero;"/>
        <path d="M212.434,29.824C211.727,30.528 210.877,30.891 209.746,30.891C208.642,30.891 207.807,30.528 207.116,29.851C206.12,28.874 206.159,27.575 206.159,26.184C206.159,24.79 206.12,23.491 207.116,22.517C207.806,21.842 208.605,21.478 209.746,21.478C211.103,21.478 211.82,21.789 212.671,22.621L211.09,24.168C210.639,23.728 210.345,23.507 209.746,23.507C209.322,23.507 209.003,23.688 208.831,23.91C208.618,24.181 208.484,24.494 208.484,26.184C208.484,27.873 208.618,28.199 208.831,28.472C209.003,28.694 209.322,28.863 209.746,28.863C210.238,28.863 210.491,28.717 210.705,28.5C210.957,28.252 211.051,27.796 211.051,27.484L211.051,27.38L209.746,27.38L209.746,25.482L213.363,25.482L213.363,26.729C213.363,28.227 213.149,29.109 212.434,29.824" style="fill:white;fill-rule:nonzero;"/>
        <path d="M195.592,46.19L195.592,39.152L193,44.734L192.137,44.734L189.506,39.152L189.506,46.19L188.495,46.19L188.495,36.93L189.506,36.93L192.59,43.497L195.592,36.93L196.602,36.93L196.602,46.191L195.592,46.191L195.592,46.19Z" style="fill:white;fill-rule:nonzero;"/>
        <path d="M202.887,46.19L202.887,45.474C202.658,45.734 202.387,45.93 202.072,46.068C201.76,46.2 201.417,46.269 201.046,46.269C200.331,46.269 199.771,46.07 199.364,45.67C199.135,45.444 198.968,45.183 198.862,44.881C198.755,44.585 198.702,44.249 198.702,43.874L198.702,39.791L199.659,39.791L199.659,43.732C199.659,44.301 199.8,44.731 200.083,45.012C200.366,45.294 200.753,45.434 201.247,45.434C201.741,45.434 202.136,45.29 202.431,45.004C202.728,44.719 202.875,44.294 202.875,43.732L202.875,39.791L203.844,39.791L203.844,46.189L202.887,46.189L202.887,46.19Z" style="fill:white;fill-rule:nonzero;"/>
        <path d="M210.457,45.144C210.328,45.381 210.145,45.586 209.911,45.756C209.677,45.922 209.396,46.051 209.075,46.138C208.752,46.226 208.39,46.27 207.992,46.27C207.433,46.27 206.936,46.2 206.503,46.061C206.067,45.92 205.67,45.683 205.308,45.344L205.945,44.721C206.204,44.991 206.504,45.182 206.848,45.291C207.194,45.405 207.57,45.463 207.978,45.463C208.52,45.463 208.945,45.368 209.254,45.184C209.564,44.997 209.719,44.711 209.719,44.331C209.719,44.054 209.633,43.836 209.461,43.681C209.287,43.523 209.01,43.429 208.631,43.393L207.555,43.303C206.915,43.25 206.432,43.084 206.098,42.803C205.766,42.522 205.6,42.116 205.6,41.586C205.6,41.291 205.661,41.029 205.779,40.799C205.9,40.57 206.064,40.374 206.277,40.213C206.49,40.054 206.745,39.93 207.043,39.843C207.339,39.757 207.659,39.713 208.006,39.713C208.476,39.713 208.911,39.769 209.315,39.883C209.718,39.994 210.065,40.168 210.357,40.402L209.733,41.014C209.504,40.841 209.241,40.713 208.944,40.63C208.645,40.549 208.33,40.508 207.994,40.508C207.515,40.508 207.151,40.601 206.903,40.785C206.655,40.973 206.53,41.232 206.53,41.56C206.53,41.838 206.617,42.053 206.791,42.21C206.964,42.366 207.258,42.459 207.676,42.495L208.725,42.584C209.008,42.614 209.27,42.661 209.508,42.73C209.748,42.799 209.951,42.903 210.119,43.041C210.287,43.18 210.418,43.353 210.512,43.562C210.604,43.772 210.652,44.022 210.652,44.317C210.649,44.631 210.584,44.907 210.457,45.144" style="fill:white;fill-rule:nonzero;"/>
        <path d="M212.166,39.792L213.123,39.792L213.123,46.19L212.166,46.19L212.166,39.792ZM212.112,36.916L213.189,36.916L213.189,37.971L212.112,37.971L212.112,36.916Z" style="fill:white;fill-rule:nonzero;"/>
        <path d="M218.868,46.061C218.545,46.2 218.155,46.27 217.705,46.27C217.288,46.27 216.905,46.202 216.556,46.069C216.207,45.931 215.899,45.729 215.639,45.456C215.377,45.185 215.174,44.84 215.027,44.429C214.882,44.018 214.808,43.538 214.808,42.991C214.808,42.446 214.881,41.97 215.027,41.562C215.174,41.155 215.378,40.812 215.639,40.539C215.899,40.268 216.207,40.061 216.556,39.924C216.907,39.787 217.288,39.715 217.705,39.715C218.155,39.715 218.545,39.786 218.868,39.924C219.19,40.062 219.518,40.31 219.856,40.663L219.207,41.262C218.959,40.994 218.724,40.807 218.502,40.703C218.28,40.6 218.014,40.545 217.705,40.545C217.386,40.545 217.097,40.608 216.842,40.731C216.585,40.851 216.367,41.034 216.189,41.278C216.04,41.484 215.93,41.722 215.866,41.985C215.8,42.25 215.765,42.584 215.765,42.993C215.765,43.399 215.799,43.738 215.866,44.002C215.93,44.266 216.04,44.504 216.189,44.709C216.368,44.954 216.586,45.135 216.842,45.254C217.097,45.379 217.386,45.439 217.705,45.439C218.014,45.439 218.28,45.385 218.502,45.277C218.724,45.168 218.959,44.98 219.207,44.711L219.856,45.323C219.519,45.674 219.19,45.92 218.868,46.061" style="fill:white;fill-rule:nonzero;"/>
        <path d="M227.404,37.812L227.404,46.19L226.393,46.19L226.393,37.812L223.657,37.812L223.657,36.93L230.141,36.93L230.141,37.813L227.404,37.813L227.404,37.812Z" style="fill:white;fill-rule:nonzero;"/>
        <path d="M234.474,42.199C234.465,42.1 234.453,42.015 234.442,41.937C234.428,41.858 234.412,41.782 234.387,41.708C234.366,41.638 234.336,41.557 234.301,41.468C234.178,41.173 233.978,40.939 233.703,40.766C233.428,40.595 233.119,40.508 232.771,40.508C232.426,40.508 232.118,40.595 231.841,40.766C231.568,40.939 231.369,41.173 231.244,41.468C231.173,41.644 231.123,41.8 231.097,41.938C231.072,42.078 231.054,42.274 231.044,42.535L234.499,42.535C234.492,42.405 234.481,42.293 234.474,42.199M231.045,43.237C231.045,43.935 231.209,44.476 231.537,44.86C231.866,45.244 232.342,45.435 232.972,45.435C233.352,45.435 233.669,45.377 233.922,45.26C234.176,45.143 234.43,44.957 234.686,44.705L235.337,45.267C235.169,45.43 235.002,45.578 234.84,45.699C234.676,45.824 234.5,45.926 234.315,46.012C234.129,46.094 233.922,46.158 233.696,46.203C233.469,46.244 233.219,46.269 232.946,46.269C232.512,46.269 232.12,46.203 231.77,46.074C231.42,45.944 231.121,45.744 230.874,45.474C230.626,45.203 230.433,44.866 230.295,44.453C230.159,44.041 230.089,43.554 230.089,42.988C230.089,41.948 230.329,41.142 230.807,40.57C231.286,39.997 231.942,39.712 232.773,39.712C233.625,39.712 234.284,39.989 234.754,40.542C235.224,41.1 235.457,41.854 235.457,42.808L235.457,43.237L231.045,43.237Z" style="fill:white;fill-rule:nonzero;"/>
        <path d="M240.924,46.061C240.602,46.2 240.215,46.27 239.763,46.27C239.346,46.27 238.963,46.202 238.611,46.069C238.263,45.931 237.958,45.729 237.697,45.456C237.434,45.185 237.231,44.84 237.086,44.429C236.94,44.018 236.866,43.538 236.866,42.991C236.866,42.446 236.939,41.97 237.086,41.562C237.232,41.155 237.435,40.812 237.697,40.539C237.958,40.268 238.263,40.061 238.611,39.924C238.964,39.786 239.346,39.715 239.763,39.715C240.215,39.715 240.602,39.786 240.924,39.924C241.248,40.062 241.578,40.31 241.914,40.663L241.264,41.262C241.015,40.994 240.782,40.807 240.561,40.703C240.338,40.6 240.074,40.545 239.763,40.545C239.444,40.545 239.157,40.608 238.899,40.731C238.641,40.851 238.425,41.034 238.249,41.278C238.099,41.484 237.99,41.722 237.923,41.985C237.857,42.25 237.822,42.584 237.822,42.993C237.822,43.399 237.856,43.738 237.923,44.002C237.99,44.266 238.099,44.504 238.249,44.709C238.426,44.954 238.642,45.135 238.899,45.254C239.157,45.379 239.444,45.439 239.763,45.439C240.074,45.439 240.338,45.385 240.561,45.277C240.782,45.168 241.015,44.98 241.264,44.711L241.914,45.323C241.578,45.674 241.248,45.92 240.924,46.061" style="fill:white;fill-rule:nonzero;"/>
        <path d="M247.592,46.19L247.592,42.234C247.592,41.674 247.449,41.25 247.166,40.968C246.882,40.687 246.492,40.542 245.997,40.542C245.5,40.542 245.104,40.688 244.807,40.974C244.51,41.259 244.362,41.682 244.362,42.234L244.362,46.19L243.405,46.19L243.405,36.93L244.362,36.93L244.362,40.492C244.831,39.972 245.444,39.713 246.196,39.713C246.94,39.713 247.518,39.926 247.93,40.351C248.342,40.776 248.549,41.352 248.549,42.081L248.549,46.19L247.592,46.19Z" style="fill:white;fill-rule:nonzero;"/>
        <path d="M254.706,46.19L254.706,42.251C254.706,41.679 254.561,41.25 254.273,40.969C253.985,40.688 253.593,40.543 253.098,40.543C252.602,40.543 252.206,40.689 251.915,40.975C251.622,41.26 251.477,41.687 251.477,42.251L251.477,46.19L250.519,46.19L250.519,39.792L251.477,39.792L251.477,40.492C251.707,40.234 251.977,40.038 252.288,39.908C252.598,39.776 252.938,39.713 253.31,39.713C254.019,39.713 254.577,39.912 254.983,40.312C255.436,40.747 255.662,41.338 255.662,42.093L255.662,46.191L254.706,46.191L254.706,46.19Z" style="fill:white;fill-rule:nonzero;"/>
        <path d="M261.694,42.444C261.686,42.26 261.664,42.085 261.629,41.91C261.593,41.737 261.54,41.574 261.468,41.423C261.398,41.274 261.304,41.136 261.189,41.014C260.872,40.702 260.472,40.543 259.995,40.543C259.525,40.543 259.13,40.701 258.81,41.014C258.687,41.136 258.593,41.274 258.526,41.423C258.46,41.574 258.405,41.737 258.368,41.91C258.327,42.085 258.303,42.262 258.294,42.444C258.285,42.626 258.28,42.808 258.28,42.989C258.28,43.173 258.285,43.353 258.294,43.538C258.303,43.717 258.327,43.896 258.368,44.069C258.405,44.243 258.46,44.409 258.526,44.563C258.593,44.719 258.687,44.856 258.81,44.965C259.129,45.278 259.525,45.435 259.995,45.435C260.473,45.435 260.872,45.279 261.189,44.965C261.304,44.856 261.398,44.719 261.468,44.563C261.54,44.409 261.593,44.243 261.629,44.069C261.664,43.896 261.687,43.717 261.694,43.538C261.703,43.353 261.709,43.173 261.709,42.989C261.709,42.809 261.703,42.626 261.694,42.444M262.511,44.389C262.41,44.827 262.195,45.21 261.867,45.542C261.637,45.766 261.368,45.944 261.055,46.075C260.745,46.204 260.392,46.269 259.994,46.269C259.595,46.269 259.239,46.204 258.931,46.075C258.622,45.944 258.351,45.765 258.121,45.542C257.952,45.376 257.816,45.195 257.715,45.001C257.612,44.804 257.532,44.601 257.476,44.389C257.418,44.178 257.379,43.954 257.357,43.717C257.335,43.486 257.323,43.243 257.323,42.989C257.323,42.749 257.335,42.506 257.357,42.267C257.379,42.029 257.419,41.805 257.476,41.591C257.534,41.379 257.613,41.174 257.715,40.98C257.817,40.785 257.952,40.606 258.121,40.441C258.35,40.214 258.622,40.038 258.931,39.908C259.24,39.776 259.595,39.713 259.994,39.713C260.392,39.713 260.746,39.776 261.055,39.908C261.368,40.038 261.636,40.215 261.867,40.441C262.194,40.769 262.41,41.155 262.511,41.591C262.614,42.029 262.664,42.495 262.664,42.988C262.664,43.485 262.613,43.952 262.511,44.389" style="fill:white;fill-rule:nonzero;"/>
        <path d="M266.006,46.19C265.431,46.19 265.011,46.029 264.745,45.702C264.478,45.378 264.347,44.973 264.347,44.484L264.347,36.93L265.304,36.93L265.304,44.448C265.304,44.758 265.366,44.995 265.488,45.15C265.612,45.308 265.843,45.383 266.18,45.383L266.698,45.383L266.698,46.191L266.006,46.191L266.006,46.19Z" style="fill:white;fill-rule:nonzero;"/>
        <path d="M272.051,42.444C272.041,42.26 272.02,42.085 271.985,41.91C271.948,41.737 271.897,41.574 271.825,41.423C271.755,41.274 271.661,41.136 271.547,41.014C271.228,40.702 270.829,40.543 270.351,40.543C269.88,40.543 269.487,40.701 269.167,41.014C269.044,41.136 268.948,41.274 268.882,41.423C268.816,41.574 268.763,41.737 268.723,41.91C268.683,42.085 268.66,42.262 268.65,42.444C268.642,42.626 268.636,42.808 268.636,42.989C268.636,43.173 268.642,43.353 268.65,43.538C268.66,43.717 268.683,43.896 268.723,44.069C268.763,44.243 268.816,44.409 268.882,44.563C268.948,44.719 269.044,44.856 269.167,44.965C269.486,45.278 269.88,45.435 270.351,45.435C270.83,45.435 271.228,45.279 271.547,44.965C271.661,44.856 271.755,44.719 271.825,44.563C271.897,44.409 271.948,44.243 271.985,44.069C272.02,43.896 272.042,43.717 272.051,43.538C272.059,43.353 272.064,43.173 272.064,42.989C272.063,42.809 272.059,42.626 272.051,42.444M272.867,44.389C272.766,44.827 272.551,45.21 272.222,45.542C271.992,45.766 271.722,45.944 271.411,46.075C271.1,46.204 270.747,46.269 270.349,46.269C269.951,46.269 269.595,46.204 269.287,46.075C268.976,45.944 268.707,45.765 268.476,45.542C268.307,45.376 268.172,45.195 268.07,45.001C267.968,44.804 267.888,44.601 267.832,44.389C267.773,44.178 267.734,43.954 267.711,43.717C267.69,43.486 267.68,43.243 267.68,42.989C267.68,42.749 267.69,42.506 267.711,42.267C267.734,42.029 267.773,41.805 267.832,41.591C267.889,41.379 267.969,41.174 268.07,40.98C268.173,40.785 268.307,40.606 268.476,40.441C268.706,40.214 268.976,40.038 269.287,39.908C269.596,39.776 269.951,39.713 270.349,39.713C270.747,39.713 271.101,39.776 271.411,39.908C271.722,40.038 271.991,40.215 272.222,40.441C272.55,40.769 272.766,41.155 272.867,41.591C272.971,42.029 273.02,42.495 273.02,42.988C273.021,43.485 272.971,43.952 272.867,44.389" style="fill:white;fill-rule:nonzero;"/>
        <path d="M278.613,42.065C278.58,41.774 278.503,41.517 278.387,41.294C278.272,41.071 278.108,40.893 277.895,40.753C277.683,40.613 277.399,40.542 277.046,40.542C276.691,40.542 276.404,40.613 276.187,40.753C275.971,40.893 275.805,41.071 275.69,41.294C275.576,41.517 275.5,41.773 275.464,42.065C275.427,42.357 275.411,42.649 275.411,42.944C275.411,43.249 275.428,43.547 275.464,43.833C275.499,44.12 275.575,44.374 275.69,44.594C275.805,44.818 275.971,44.999 276.187,45.135C276.405,45.276 276.691,45.344 277.046,45.344C277.399,45.344 277.683,45.276 277.895,45.135C278.108,44.999 278.272,44.818 278.387,44.594C278.502,44.374 278.579,44.12 278.613,43.833C278.649,43.547 278.668,43.249 278.668,42.944C278.668,42.649 278.649,42.356 278.613,42.065M279.437,47.485C279.312,47.817 279.136,48.106 278.905,48.348C278.675,48.592 278.389,48.784 278.05,48.922C277.709,49.06 277.323,49.129 276.9,49.129C276.652,49.129 276.429,49.113 276.236,49.081C276.042,49.051 275.857,49.002 275.685,48.93C275.511,48.862 275.343,48.771 275.179,48.661C275.015,48.549 274.849,48.417 274.681,48.256L275.304,47.659C275.422,47.763 275.534,47.853 275.643,47.932C275.755,48.01 275.871,48.079 275.99,48.131C276.109,48.19 276.24,48.231 276.384,48.256C276.524,48.284 276.688,48.295 276.875,48.295C277.193,48.295 277.466,48.245 277.69,48.142C277.918,48.038 278.102,47.901 278.249,47.727C278.394,47.558 278.502,47.352 278.566,47.118C278.634,46.881 278.669,46.624 278.669,46.35L278.669,45.357C278.402,45.681 278.12,45.9 277.816,46.01C277.516,46.12 277.187,46.174 276.834,46.174C276.499,46.174 276.193,46.124 275.925,46.022C275.653,45.917 275.43,45.778 275.254,45.603C274.925,45.282 274.711,44.885 274.609,44.42C274.507,43.952 274.456,43.458 274.456,42.937C274.456,42.417 274.508,41.924 274.609,41.455C274.711,40.985 274.924,40.594 275.254,40.27C275.43,40.097 275.655,39.961 275.93,39.861C276.205,39.761 276.51,39.712 276.848,39.712C277.21,39.712 277.541,39.766 277.839,39.876C278.134,39.983 278.417,40.206 278.68,40.542L278.68,39.791L279.626,39.791L279.626,46.385C279.625,46.782 279.561,47.152 279.437,47.485" style="fill:white;fill-rule:nonzero;"/>
        <path d="M283.541,47.738C283.416,48.077 283.261,48.329 283.073,48.493C282.895,48.657 282.697,48.773 282.478,48.839C282.255,48.901 282.028,48.935 281.798,48.935L281.386,48.935L281.386,48.103L281.679,48.103C282.006,48.103 282.241,48.044 282.383,47.928C282.524,47.81 282.648,47.605 282.755,47.31L283.22,46.061L280.868,39.792L281.903,39.792L283.698,44.928L285.478,39.792L286.514,39.792L283.541,47.738Z" style="fill:white;fill-rule:nonzero;"/>
        <path d="M194.934,57.738C194.809,58.114 194.602,58.454 194.31,58.759C193.973,59.113 193.59,59.382 193.162,59.559C192.731,59.738 192.271,59.827 191.787,59.827C191.315,59.827 190.874,59.745 190.464,59.579C190.052,59.415 189.687,59.176 189.369,58.862C189.145,58.646 188.975,58.423 188.855,58.185C188.736,57.952 188.647,57.69 188.589,57.399C188.531,57.11 188.498,56.779 188.489,56.411C188.479,56.044 188.475,55.61 188.475,55.118C188.475,54.622 188.479,54.192 188.489,53.825C188.498,53.454 188.531,53.124 188.589,52.835C188.647,52.544 188.735,52.28 188.855,52.046C188.975,51.814 189.145,51.589 189.369,51.372C190.022,50.729 190.83,50.409 191.787,50.409C192.237,50.409 192.651,50.474 193.028,50.61C193.405,50.745 193.735,50.936 194.018,51.182C194.301,51.428 194.535,51.721 194.715,52.061C194.897,52.398 195.023,52.77 195.094,53.179L194.084,53.179C193.952,52.589 193.682,52.126 193.279,51.794C192.875,51.46 192.378,51.292 191.786,51.292C191.474,51.292 191.176,51.351 190.888,51.467C190.6,51.585 190.355,51.749 190.151,51.956C190.001,52.102 189.881,52.262 189.792,52.431C189.705,52.598 189.638,52.801 189.594,53.036C189.549,53.269 189.519,53.555 189.507,53.888C189.494,54.22 189.487,54.634 189.487,55.118C189.487,55.602 189.494,56.012 189.507,56.346C189.519,56.68 189.549,56.966 189.594,57.206C189.638,57.443 189.705,57.647 189.792,57.815C189.882,57.984 190.001,58.143 190.151,58.292C190.355,58.499 190.6,58.659 190.888,58.771C191.176,58.884 191.475,58.94 191.786,58.94C192.13,58.94 192.461,58.874 192.775,58.741C193.088,58.603 193.357,58.405 193.579,58.147C193.772,57.921 193.911,57.675 193.991,57.413C194.069,57.146 194.109,56.831 194.109,56.467L194.109,55.768L191.786,55.768L191.786,54.894L195.121,54.894L195.121,56.366C195.121,56.902 195.059,57.358 194.934,57.738" style="fill:white;fill-rule:nonzero;"/>
        <path d="M200.619,54.569C200.44,54.396 200.273,54.276 200.115,54.206C199.955,54.137 199.746,54.101 199.488,54.101C199.25,54.101 199.034,54.147 198.84,54.233C198.644,54.32 198.48,54.44 198.348,54.597C198.213,54.753 198.11,54.933 198.036,55.142C197.961,55.353 197.923,55.577 197.923,55.819L197.923,59.749L196.966,59.749L196.966,53.349L197.923,53.349L197.923,54.128C198.099,53.86 198.354,53.649 198.686,53.497C199.018,53.347 199.376,53.269 199.757,53.269C200.065,53.269 200.348,53.313 200.6,53.399C200.852,53.486 201.095,53.643 201.326,53.87L200.619,54.569Z" style="fill:white;fill-rule:nonzero;"/>
        <path d="M206.383,56.001C206.374,55.818 206.352,55.643 206.317,55.466C206.282,55.294 206.229,55.132 206.158,54.98C206.087,54.831 205.995,54.692 205.879,54.57C205.561,54.257 205.162,54.102 204.683,54.102C204.213,54.102 203.82,54.257 203.501,54.57C203.377,54.692 203.28,54.831 203.216,54.98C203.149,55.132 203.095,55.294 203.056,55.466C203.017,55.643 202.992,55.819 202.984,56.001C202.974,56.184 202.969,56.366 202.969,56.546C202.969,56.73 202.974,56.911 202.984,57.093C202.992,57.275 203.017,57.454 203.056,57.626C203.095,57.8 203.149,57.966 203.216,58.12C203.28,58.275 203.377,58.411 203.501,58.523C203.819,58.835 204.213,58.991 204.683,58.991C205.162,58.991 205.561,58.837 205.879,58.523C205.995,58.411 206.087,58.275 206.158,58.12C206.229,57.966 206.282,57.8 206.317,57.626C206.352,57.454 206.375,57.274 206.383,57.093C206.392,56.911 206.398,56.73 206.398,56.546C206.397,56.366 206.392,56.184 206.383,56.001M207.2,57.945C207.098,58.384 206.883,58.766 206.554,59.098C206.324,59.323 206.054,59.501 205.743,59.63C205.434,59.759 205.079,59.825 204.681,59.825C204.285,59.825 203.929,59.759 203.619,59.63C203.308,59.501 203.039,59.321 202.808,59.098C202.64,58.933 202.505,58.751 202.404,58.557C202.301,58.36 202.222,58.157 202.165,57.945C202.105,57.732 202.066,57.507 202.044,57.274C202.023,57.042 202.012,56.8 202.012,56.546C202.012,56.305 202.023,56.063 202.044,55.823C202.066,55.585 202.106,55.361 202.165,55.147C202.223,54.934 202.302,54.731 202.404,54.536C202.506,54.341 202.64,54.161 202.808,53.999C203.038,53.77 203.308,53.595 203.619,53.466C203.93,53.333 204.285,53.269 204.681,53.269C205.079,53.269 205.435,53.333 205.743,53.466C206.054,53.595 206.322,53.771 206.554,53.999C206.882,54.327 207.098,54.71 207.2,55.147C207.303,55.585 207.353,56.052 207.353,56.544C207.354,57.042 207.303,57.507 207.2,57.945" style="fill:white;fill-rule:nonzero;"/>
        <path d="M213.179,59.747L213.179,59.032C212.951,59.292 212.68,59.487 212.366,59.624C212.052,59.757 211.71,59.827 211.339,59.827C210.624,59.827 210.064,59.626 209.658,59.227C209.428,59.001 209.259,58.741 209.155,58.438C209.048,58.14 208.995,57.806 208.995,57.432L208.995,53.348L209.951,53.348L209.951,57.29C209.951,57.859 210.093,58.288 210.376,58.569C210.659,58.851 211.045,58.991 211.54,58.991C212.034,58.991 212.429,58.847 212.724,58.561C213.021,58.274 213.168,57.851 213.168,57.29L213.168,53.348L214.137,53.348L214.137,59.747L213.179,59.747Z" style="fill:white;fill-rule:nonzero;"/>
        <path d="M220.34,55.638C220.303,55.34 220.23,55.082 220.112,54.857C219.998,54.631 219.832,54.45 219.614,54.31C219.398,54.17 219.111,54.101 218.758,54.101C218.404,54.101 218.119,54.17 217.901,54.31C217.684,54.45 217.518,54.631 217.402,54.857C217.288,55.084 217.21,55.34 217.171,55.638C217.131,55.931 217.111,56.234 217.111,56.545C217.111,56.859 217.131,57.164 217.171,57.457C217.21,57.752 217.288,58.014 217.402,58.238C217.518,58.463 217.684,58.645 217.901,58.785C218.12,58.922 218.404,58.991 218.758,58.991C219.111,58.991 219.399,58.922 219.614,58.785C219.832,58.645 219.998,58.463 220.112,58.238C220.229,58.013 220.302,57.752 220.34,57.457C220.375,57.164 220.392,56.859 220.392,56.545C220.392,56.233 220.375,55.931 220.34,55.638M221.315,57.301C221.294,57.551 221.253,57.797 221.194,58.035C221.138,58.273 221.057,58.498 220.957,58.705C220.853,58.914 220.721,59.102 220.553,59.265C220.375,59.439 220.149,59.576 219.875,59.676C219.6,59.775 219.293,59.826 218.957,59.826C218.594,59.826 218.262,59.768 217.96,59.654C217.66,59.543 217.376,59.323 217.11,58.991L217.11,62.609L216.153,62.609L216.153,53.347L217.11,53.347L217.11,54.1C217.376,53.762 217.66,53.539 217.96,53.431C218.262,53.325 218.594,53.268 218.957,53.268C219.293,53.268 219.6,53.318 219.875,53.418C220.148,53.518 220.375,53.653 220.553,53.828C220.721,53.992 220.854,54.179 220.957,54.387C221.058,54.596 221.139,54.819 221.194,55.056C221.254,55.293 221.294,55.539 221.315,55.789C221.337,56.043 221.348,56.295 221.348,56.545C221.349,56.799 221.338,57.049 221.315,57.301" style="fill:white;fill-rule:nonzero;"/>
        <path d="M41.116,44.129C40.122,44.129 39.767,43.697 39.767,42.668L39.803,34.346C39.803,34.03 39.735,33.861 39.385,33.861C39.293,33.861 39.084,33.884 38.763,33.921C38.036,34.004 36.687,34.124 35.075,34.172L35.005,34.176L35.005,35.217L35.078,35.217C35.927,35.217 36.492,35.448 36.492,36.437L36.46,38.858C36.46,42.873 34.85,43.65 33.675,43.65C32.714,43.65 32.354,42.656 32.354,41.82L32.401,34.347C32.401,34.031 32.334,33.862 31.983,33.862C31.892,33.862 31.679,33.885 31.36,33.921C30.634,34.005 29.438,34.125 27.83,34.173L27.758,34.177L27.758,35.218L27.832,35.218C28.683,35.218 29.246,35.449 29.246,36.438L29.2,41.475C29.2,44.758 30.896,45.449 32.32,45.449C34.443,45.449 35.663,44.064 36.325,43.322C36.508,43.115 36.693,42.903 36.761,42.903C36.794,42.903 36.893,42.903 36.893,43.06L36.893,45.101C36.893,45.403 37.097,45.449 37.218,45.449C37.31,45.449 37.516,45.422 37.826,45.377C38.576,45.276 39.834,45.174 41.116,45.174L41.19,45.174L41.19,44.129L41.116,44.129Z" style="fill:white;fill-rule:nonzero;"/>
        <path d="M63.095,28.217C60.199,28.217 59.415,32.279 59.04,34.293L56.704,34.293L56.491,35.336L58.882,35.336L58.726,36.348C58.621,37.026 58.517,37.703 58.414,38.391L58.237,39.557C57.218,46.277 56.705,49.263 55.593,49.263C55.468,49.263 55.438,49.226 55.438,49.083C55.438,49.036 55.453,48.978 55.47,48.909C55.499,48.811 55.529,48.688 55.529,48.532C55.529,48.071 55.188,47.747 54.701,47.747C53.971,47.747 53.64,48.272 53.64,48.763C53.64,49.669 54.3,50.304 55.25,50.304C56.95,50.304 59.035,48.344 60.912,35.336L63.501,35.336L63.685,34.293L61.045,34.293L61.265,32.588C61.59,30.252 62.013,29.26 62.681,29.26C62.95,29.26 63.113,29.395 63.113,29.619C63.113,29.767 63.093,29.842 63.072,29.918C63.049,30.008 63.021,30.1 63.021,30.283C63.021,30.668 63.261,31.117 63.945,31.117C64.771,31.117 65.14,30.48 65.14,29.849C65.14,28.812 64.396,28.217 63.095,28.217" style="fill:white;fill-rule:nonzero;"/>
        <path d="M64.736,42.687C63.99,42.687 63.382,43.295 63.382,44.045C63.382,44.791 63.99,45.403 64.736,45.403C65.486,45.403 66.096,44.791 66.096,44.045C66.097,43.295 65.486,42.687 64.736,42.687" style="fill:white;fill-rule:nonzero;"/>
        <path d="M73.124,66.233L21.307,66.233L21.307,14.414L73.124,14.414L73.124,66.233ZM24.094,63.444L70.339,63.444L70.339,17.201L24.094,17.201L24.094,63.444Z" style="fill:white;fill-rule:nonzero;"/>
        <path d="M51.068,33.861C48.988,33.861 47.863,35.302 47.38,35.994C47.352,34.617 46.84,33.974 45.773,33.974C44.047,33.974 43.039,36.329 42.496,37.597L42.468,37.656L43.283,38.117L43.317,38.049C43.354,37.971 43.401,37.861 43.464,37.731C43.816,36.946 44.55,35.315 45.312,35.315C45.728,35.315 45.791,35.829 45.791,36.135C45.791,36.574 45.658,37.27 45.426,38.321L43.271,47.562C42.96,48.933 42.809,49.154 41.44,49.154L41.38,49.154L41.192,50.195L46.978,50.195L47.218,49.154L47.127,49.154C45.339,49.154 45.042,49.133 45.042,48.45C45.042,48.304 45.123,47.962 45.185,47.683L46.209,43.349C46.765,44.508 47.442,45.45 49.507,45.45C53.057,45.45 54.949,41.452 54.949,38.567C54.948,36.225 53.749,33.861 51.068,33.861M52.587,38.061C52.587,39.924 51.695,44.007 49.047,44.007C47.568,44.007 47.047,42.507 47.047,41.225C47.047,38.743 48.227,35.301 50.448,35.301C52.215,35.301 52.587,36.803 52.587,38.061" style="fill:white;fill-rule:nonzero;"/>
        <path d="M80.677,21.549L85.833,21.549L85.833,22.176L85.507,22.176C84.606,22.176 84.374,22.559 84.374,23.131L84.374,27.688C84.374,29.366 85.124,30.252 86.638,30.252C88.044,30.252 88.781,29.693 89.136,28.82C89.298,28.41 89.327,27.783 89.327,27.414L89.327,23.676C89.327,22.436 88.712,22.176 87.866,22.176L87.866,21.549L91.263,21.549L91.263,22.176C90.144,22.176 90.008,22.68 90.008,23.676L90.008,27.414C90.008,29.461 89.121,31.086 86.119,31.086C83.348,31.086 82.012,29.693 82.012,27.688L82.012,23.717C82.012,22.258 81.739,22.176 80.676,22.176L80.676,21.549L80.677,21.549Z" style="fill:white;fill-rule:nonzero;"/>
        <path d="M91.359,30.348C92.001,30.348 92.273,30.157 92.273,29.475L92.273,25.764C92.273,25.096 91.904,25.014 91.292,25.014L91.292,24.48C92.437,24.455 93.666,24.277 93.855,24.277C93.964,24.277 93.978,24.373 93.978,24.494L93.978,25.449C93.978,25.64 93.993,25.736 94.06,25.736C94.211,25.736 94.784,24.277 96.229,24.277C97.566,24.277 98.234,25.109 98.234,26.527L98.234,29.679C98.234,30.199 98.521,30.347 99.067,30.347L99.067,30.88L95.547,30.88L95.547,30.347C95.97,30.347 96.351,30.265 96.351,29.72L96.351,26.335C96.351,25.517 95.97,25.259 95.561,25.259C94.866,25.259 94.157,26.023 94.157,27.292L94.157,29.706C94.157,30.278 94.523,30.347 94.948,30.347L94.948,30.88L91.359,30.88L91.359,30.348Z" style="fill:white;fill-rule:nonzero;"/>
        <path d="M99.718,30.348C100.359,30.348 100.7,30.348 100.7,29.653L100.7,25.969C100.7,25.11 100.318,25.014 99.718,25.014L99.718,24.48C101.152,24.425 101.983,24.277 102.378,24.277C102.528,24.277 102.583,24.33 102.583,24.66L102.583,29.652C102.583,30.347 102.91,30.347 103.483,30.347L103.483,30.88L99.717,30.88L99.717,30.348L99.718,30.348ZM101.409,20.811C101.982,20.811 102.46,21.276 102.46,21.848C102.46,22.422 101.982,22.885 101.409,22.885C100.837,22.885 100.358,22.422 100.358,21.848C100.358,21.275 100.837,20.811 101.409,20.811" style="fill:white;fill-rule:nonzero;"/>
        <path d="M103.599,24.48L107.352,24.48L107.352,25.013C106.969,25.013 106.535,25.068 106.535,25.544C106.535,25.858 106.711,26.308 107.011,27.005L107.829,28.888C107.911,29.079 107.953,29.161 107.995,29.161C108.061,29.161 108.089,29.024 108.143,28.888L108.757,27.331C108.947,26.854 109.207,26.173 109.207,25.708C109.207,25.218 108.879,25.013 108.348,25.013L108.348,24.48L110.722,24.48L110.722,25.013C110.395,25.054 110.203,25.177 109.916,25.886L107.855,30.962L106.709,30.962L104.539,25.9C104.227,25.164 104.159,25.013 103.598,25.013L103.598,24.48L103.599,24.48Z" style="fill:white;fill-rule:nonzero;"/>
        <path d="M116.836,28.889C116.414,30.266 115.321,31.086 113.93,31.086C112.307,31.086 110.833,29.652 110.833,27.688C110.833,25.709 112.307,24.278 113.971,24.278C115.785,24.278 116.796,25.696 116.796,27.62L112.934,27.62L112.934,27.88C112.934,29.64 113.712,30.255 114.477,30.255C115.445,30.255 115.936,29.585 116.223,28.89L116.836,28.89L116.836,28.889ZM114.682,27.088C114.764,27.088 114.79,27.047 114.79,26.951L114.79,26.678C114.79,25.463 114.49,24.809 113.86,24.809C113.302,24.809 112.933,25.409 112.933,26.747L112.933,27.089L114.682,27.089L114.682,27.088Z" style="fill:white;fill-rule:nonzero;"/>
        <path d="M117.146,30.348C117.802,30.348 118.305,30.348 118.305,29.516L118.305,25.764C118.305,25.096 117.939,25.014 117.188,25.014L117.188,24.48C118.168,24.455 119.671,24.277 119.822,24.277C119.918,24.277 119.944,24.343 119.944,24.468L119.944,25.585C119.944,25.64 119.944,25.735 120.012,25.735C120.215,25.735 120.64,24.276 121.732,24.276C122.427,24.276 122.796,24.753 122.796,25.448C122.796,26.009 122.495,26.512 121.867,26.512C120.939,26.512 121.089,25.502 120.897,25.502C120.693,25.502 120.189,26.09 120.189,27.426L120.189,29.514C120.189,30.346 120.667,30.346 121.552,30.346L121.552,30.879L117.144,30.879L117.144,30.348L117.146,30.348Z" style="fill:white;fill-rule:nonzero;"/>
        <path d="M127.467,26.201C127.18,25.326 126.621,24.808 125.68,24.808C125.108,24.808 124.697,25.054 124.697,25.626C124.697,26.827 128.341,26.513 128.341,28.997C128.341,30.183 127.372,31.083 126.063,31.083C125.217,31.083 124.712,30.716 124.412,30.716C124.249,30.716 124.1,30.839 124.045,31.056L123.553,31.056C123.567,30.689 123.594,30.32 123.594,29.952C123.594,29.583 123.567,29.229 123.553,28.86L124.071,28.86C124.222,29.829 125.054,30.551 126.01,30.551C126.651,30.551 127.087,30.223 127.087,29.719C127.087,28.082 123.443,28.6 123.443,26.104C123.443,24.93 124.535,24.276 125.695,24.276C126.5,24.276 126.691,24.547 127.046,24.547C127.264,24.547 127.428,24.492 127.496,24.317L127.92,24.317C127.906,24.629 127.878,24.944 127.878,25.258C127.878,25.57 127.906,25.885 127.92,26.199L127.467,26.199L127.467,26.201Z" style="fill:white;fill-rule:nonzero;"/>
        <path d="M128.908,30.348C129.549,30.348 129.889,30.348 129.889,29.653L129.889,25.969C129.889,25.11 129.507,25.014 128.908,25.014L128.908,24.48C130.34,24.425 131.172,24.277 131.567,24.277C131.717,24.277 131.771,24.33 131.771,24.66L131.771,29.652C131.771,30.347 132.098,30.347 132.672,30.347L132.672,30.88L128.907,30.88L128.907,30.348L128.908,30.348ZM130.599,20.811C131.172,20.811 131.65,21.276 131.65,21.848C131.65,22.422 131.172,22.885 130.599,22.885C130.025,22.885 129.549,22.422 129.549,21.848C129.549,21.275 130.024,20.811 130.599,20.811" style="fill:white;fill-rule:nonzero;"/>
        <path d="M132.821,24.562C134.172,24.195 134.813,23.007 135.235,21.833L135.742,21.833L135.742,24.479L137.283,24.479L137.283,25.012L135.742,25.012L135.742,29.377C135.742,29.979 136,30.102 136.259,30.102C136.696,30.102 136.927,29.678 137.119,29.35L137.568,29.555C137.186,30.496 136.572,31.084 135.508,31.084C134.389,31.084 133.857,30.496 133.857,29.24L133.857,25.011L132.821,25.011L132.821,24.562Z" style="fill:white;fill-rule:nonzero;"/>
        <path d="M144.129,29.707C144.129,29.994 144.252,30.103 144.457,30.103C144.58,30.103 144.661,30.06 144.717,30.06C144.771,30.06 144.813,30.115 144.813,30.199C144.813,30.84 144.17,31.086 143.651,31.086C142.712,31.086 142.424,30.361 142.288,30.129C142.027,30.334 141.183,31.086 140.037,31.086C138.904,31.086 138.263,30.389 138.263,29.488C138.263,27.578 140.828,27.209 142.247,27.14L142.247,26.24C142.247,25.219 141.729,24.808 140.773,24.808C140.227,24.808 140.037,24.945 140.037,25.109C140.037,25.394 140.433,25.298 140.433,25.927C140.433,26.376 140.161,26.8 139.478,26.8C138.892,26.8 138.55,26.31 138.55,25.777C138.55,24.795 139.613,24.277 140.938,24.277C143.298,24.277 144.13,25.259 144.13,27.129L144.13,29.707L144.129,29.707ZM140.963,30.252C141.729,30.252 142.246,29.57 142.246,28.193C142.246,27.66 142.246,27.578 142.178,27.578C141.66,27.578 140.145,27.851 140.145,29.119C140.145,29.857 140.403,30.252 140.963,30.252" style="fill:white;fill-rule:nonzero;"/>
        <path d="M144.992,24.562C146.342,24.195 146.983,23.007 147.405,21.833L147.912,21.833L147.912,24.479L149.453,24.479L149.453,25.012L147.912,25.012L147.912,29.377C147.912,29.979 148.17,30.102 148.43,30.102C148.867,30.102 149.098,29.678 149.289,29.35L149.74,29.555C149.356,30.496 148.743,31.084 147.679,31.084C146.559,31.084 146.027,30.496 146.027,29.24L146.027,25.011L144.992,25.011L144.992,24.562Z" style="fill:white;fill-rule:nonzero;"/>
        <path d="M80.921,44.61L81.304,44.61C81.931,44.61 82.15,44.296 82.15,43.86L82.15,37.461C82.15,36.574 81.74,36.533 80.921,36.533L80.921,35.906L85.847,35.906C88.411,35.906 89.409,36.888 89.409,38.32C89.409,40.353 87.278,40.789 85.6,40.789L84.741,40.789C84.563,40.789 84.51,40.83 84.51,40.939L84.51,43.86C84.51,44.555 84.823,44.61 85.792,44.61L86.065,44.61L86.065,45.237L80.92,45.237L80.92,44.61L80.921,44.61ZM84.51,40.053C84.51,40.162 84.564,40.203 84.741,40.203C86.243,40.203 86.802,39.793 86.802,38.238C86.802,37.256 86.461,36.492 85.357,36.492C84.796,36.492 84.51,36.738 84.51,37.42L84.51,40.053Z" style="fill:white;fill-rule:nonzero;"/>
        <path d="M92.866,38.633C94.611,38.633 96.168,40.067 96.168,42.046C96.168,44.008 94.693,45.442 92.866,45.442C91.038,45.442 89.563,44.008 89.563,42.046C89.563,40.066 91.12,38.633 92.866,38.633M92.866,44.911C93.56,44.911 94.066,44.556 94.066,42.046C94.066,39.494 93.478,39.166 92.866,39.166C92.253,39.166 91.665,39.494 91.665,42.046C91.665,44.556 92.171,44.911 92.866,44.911" style="fill:white;fill-rule:nonzero;"/>
        <path d="M96.617,44.706C97.066,44.706 97.449,44.651 97.449,43.874L97.449,40.122C97.449,39.454 97.095,39.372 96.617,39.372L96.617,38.838C97.557,38.784 98.745,38.633 98.976,38.633C99.072,38.633 99.098,38.704 99.098,38.825L99.098,39.725C99.098,39.956 99.098,40.093 99.18,40.093C99.358,40.093 99.877,38.632 101.363,38.632C103.085,38.632 103.111,40.121 103.288,40.121C103.452,40.121 103.753,38.632 105.402,38.632C106.617,38.632 107.382,39.507 107.382,41.007L107.382,43.874C107.382,44.556 107.586,44.706 108.2,44.706L108.2,45.236L104.693,45.236L104.693,44.706C105.116,44.706 105.499,44.65 105.499,43.874L105.499,41.212C105.499,40.011 105.172,39.617 104.611,39.617C103.901,39.617 103.355,40.692 103.355,41.909L103.355,43.874C103.355,44.556 103.56,44.706 104.175,44.706L104.175,45.236L100.668,45.236L100.668,44.706C101.092,44.706 101.472,44.65 101.472,43.874L101.472,41.212C101.472,40.011 101.146,39.617 100.587,39.617C99.877,39.617 99.331,40.692 99.331,41.909L99.331,43.874C99.331,44.556 99.535,44.706 100.149,44.706L100.149,45.236L96.616,45.236L96.616,44.706L96.617,44.706Z" style="fill:white;fill-rule:nonzero;"/>
        <path d="M108.299,47.366C108.749,47.366 109.28,47.229 109.28,46.657L109.28,40.121C109.28,39.453 108.912,39.371 108.299,39.371L108.299,38.838C109.199,38.811 110.645,38.633 110.795,38.633C110.891,38.633 110.918,38.729 110.918,38.824L110.918,39.494C110.918,39.711 110.945,39.779 110.986,39.779C111.123,39.779 111.612,38.633 113.006,38.633C114.479,38.633 115.666,39.848 115.666,41.908C115.666,43.901 114.696,45.442 112.978,45.442C111.708,45.442 111.395,44.583 111.258,44.583C111.191,44.583 111.163,44.665 111.163,44.747L111.163,46.685C111.163,47.312 111.559,47.368 112.54,47.368L112.54,47.898L108.298,47.898L108.298,47.366L108.299,47.366ZM112.363,44.61C113.195,44.61 113.564,43.696 113.564,42.098C113.564,40.216 113.305,39.466 112.392,39.466C111.327,39.466 111.163,40.884 111.163,42.098C111.164,43.587 111.532,44.61 112.363,44.61" style="fill:white;fill-rule:nonzero;"/>
        <path d="M122.555,43.245C122.132,44.624 121.041,45.442 119.649,45.442C118.026,45.442 116.551,44.011 116.551,42.046C116.551,40.067 118.026,38.633 119.69,38.633C121.504,38.633 122.514,40.053 122.514,41.978L118.653,41.978L118.653,42.238C118.653,43.999 119.43,44.611 120.196,44.611C121.164,44.611 121.655,43.943 121.942,43.247L122.555,43.247L122.555,43.245ZM120.398,41.443C120.481,41.443 120.507,41.404 120.507,41.308L120.507,41.036C120.507,39.82 120.207,39.166 119.579,39.166C119.02,39.166 118.651,39.766 118.651,41.104L118.651,41.444L120.398,41.444L120.398,41.443Z" style="fill:white;fill-rule:nonzero;"/>
        <path d="M122.901,38.838C124.266,38.797 125.29,38.633 125.466,38.633C125.63,38.633 125.671,38.688 125.671,38.879L125.671,43.327C125.671,43.969 125.861,44.46 126.407,44.46C127.172,44.46 127.909,43.573 127.909,42.06L127.909,40.122C127.909,39.468 127.484,39.372 127.021,39.372L127.021,38.839C128.385,38.798 129.409,38.634 129.586,38.634C129.75,38.634 129.79,38.689 129.79,38.88L129.79,43.835C129.79,44.447 129.994,44.708 130.636,44.708L130.636,45.238C129.558,45.238 128.494,45.443 128.316,45.443C128.194,45.443 128.168,45.361 128.168,45.279L128.168,44.064C128.168,43.982 128.127,43.929 128.045,43.929C127.827,43.929 127.295,45.443 125.602,45.443C124.551,45.443 123.789,44.801 123.789,43.124L123.789,40.122C123.789,39.468 123.366,39.372 122.901,39.372L122.901,38.838Z" style="fill:white;fill-rule:nonzero;"/>
        <path d="M134.922,44.61L135.264,44.61C135.891,44.61 136.109,44.296 136.109,43.86L136.109,37.461C136.109,36.574 135.701,36.533 134.922,36.533L134.922,35.906L143.381,35.906L143.436,38.758L142.809,38.758C142.645,37.215 141.539,36.492 140.025,36.492C138.647,36.492 138.47,36.642 138.47,37.201L138.47,39.875C138.47,40.053 138.511,40.107 138.674,40.107C139.807,40.107 140.502,39.834 140.502,38.416L141.13,38.416L141.13,42.454L140.528,42.454C140.447,41.199 140.052,40.693 138.797,40.693C138.538,40.693 138.47,40.72 138.47,40.898L138.47,43.86C138.47,44.555 138.783,44.61 139.752,44.61L139.984,44.61L139.984,45.237L134.922,45.237L134.922,44.61Z" style="fill:white;fill-rule:nonzero;"/>
        <path d="M149.603,44.063C149.603,44.35 149.725,44.459 149.93,44.459C150.052,44.459 150.135,44.418 150.189,44.418C150.246,44.418 150.287,44.473 150.287,44.555C150.287,45.198 149.644,45.442 149.125,45.442C148.184,45.442 147.897,44.719 147.763,44.487C147.503,44.692 146.659,45.442 145.51,45.442C144.378,45.442 143.736,44.747 143.736,43.846C143.736,41.936 146.302,41.566 147.72,41.497L147.72,40.597C147.72,39.576 147.202,39.165 146.248,39.165C145.702,39.165 145.51,39.302 145.51,39.466C145.51,39.751 145.907,39.655 145.907,40.284C145.907,40.733 145.634,41.157 144.952,41.157C144.365,41.157 144.022,40.665 144.022,40.134C144.022,39.152 145.088,38.632 146.413,38.632C148.771,38.632 149.604,39.616 149.604,41.484L149.604,44.063L149.603,44.063ZM146.438,44.61C147.202,44.61 147.719,43.928 147.719,42.549C147.719,42.018 147.719,41.936 147.653,41.936C147.133,41.936 145.621,42.209 145.621,43.477C145.619,44.213 145.878,44.61 146.438,44.61" style="fill:white;fill-rule:nonzero;"/>
        <path d="M150.472,35.441C151.959,35.386 153.01,35.17 153.242,35.17C153.31,35.17 153.364,35.209 153.364,35.318L153.364,39.248C153.364,39.576 153.379,39.644 153.46,39.644C153.61,39.644 153.898,38.634 155.247,38.634C156.939,38.634 157.881,40.271 157.881,41.99C157.881,43.874 156.681,45.441 154.757,45.441C153.556,45.441 152.969,44.337 152.778,44.337C152.628,44.337 152.069,45.235 151.946,45.441L151.428,45.441C151.482,44.404 151.482,43.122 151.482,41.551L151.482,36.9C151.482,36.164 151.237,35.972 150.594,35.972L150.472,35.972L150.472,35.441ZM154.66,39.467C153.801,39.467 153.363,40.34 153.363,42.167C153.363,43.833 153.801,44.911 154.66,44.911C155.397,44.911 155.779,44.131 155.779,42.399C155.779,39.984 155.369,39.467 154.66,39.467" style="fill:white;fill-rule:nonzero;"/>
        <path d="M158.309,44.706C158.963,44.706 159.469,44.706 159.469,43.874L159.469,40.122C159.469,39.454 159.1,39.372 158.35,39.372L158.35,38.838C159.332,38.811 160.832,38.633 160.983,38.633C161.08,38.633 161.106,38.704 161.106,38.825L161.106,39.943C161.106,39.998 161.106,40.093 161.174,40.093C161.379,40.093 161.801,38.632 162.893,38.632C163.588,38.632 163.957,39.111 163.957,39.807C163.957,40.368 163.657,40.871 163.029,40.871C162.101,40.871 162.251,39.86 162.06,39.86C161.855,39.86 161.351,40.449 161.351,41.786L161.351,43.874C161.351,44.706 161.829,44.706 162.714,44.706L162.714,45.236L158.308,45.236L158.308,44.706L158.309,44.706Z" style="fill:white;fill-rule:nonzero;"/>
        <path d="M170.309,44.063C170.309,44.35 170.432,44.459 170.637,44.459C170.759,44.459 170.841,44.418 170.897,44.418C170.951,44.418 170.993,44.473 170.993,44.555C170.993,45.198 170.35,45.442 169.832,45.442C168.892,45.442 168.604,44.719 168.468,44.487C168.208,44.692 167.363,45.442 166.216,45.442C165.085,45.442 164.443,44.747 164.443,43.846C164.443,41.936 167.008,41.566 168.427,41.497L168.427,40.597C168.427,39.576 167.909,39.165 166.954,39.165C166.408,39.165 166.216,39.302 166.216,39.466C166.216,39.751 166.612,39.655 166.612,40.284C166.612,40.733 166.34,41.157 165.658,41.157C165.071,41.157 164.729,40.665 164.729,40.134C164.729,39.152 165.793,38.632 167.118,38.632C169.477,38.632 170.309,39.616 170.309,41.484L170.309,44.063ZM167.144,44.61C167.909,44.61 168.426,43.928 168.426,42.549C168.426,42.018 168.426,41.936 168.358,41.936C167.84,41.936 166.326,42.209 166.326,43.477C166.325,44.213 166.584,44.61 167.144,44.61" style="fill:white;fill-rule:nonzero;"/>
        <path d="M81.14,58.981L81.495,58.981C82.313,58.981 82.451,58.737 82.572,58.135L83.882,52.063C83.951,51.778 83.992,51.573 83.992,51.368C83.992,50.985 83.691,50.877 82.94,50.877L82.667,50.877L82.804,50.263L87.497,50.263C89.204,50.263 90.567,50.687 90.567,52.228C90.567,54.249 88.629,54.48 87.934,54.644L87.934,54.67C88.617,54.78 90.159,55.135 90.159,56.661C90.159,58.122 89.04,59.594 86.065,59.594L81.003,59.594L81.14,58.981ZM83.869,57.849C83.828,58.04 83.801,58.232 83.801,58.355C83.801,58.777 83.91,58.982 85.179,58.982C87.839,58.982 88.726,58.288 88.726,56.799C88.726,54.984 86.994,54.915 85.179,54.915L84.497,54.915L83.869,57.849ZM84.619,54.301L85.669,54.301C87.021,54.301 89.286,54.275 89.286,52.351C89.286,51.219 88.52,50.877 86.815,50.877C85.493,50.877 85.382,50.999 85.233,51.627L84.619,54.301Z" style="fill:white;fill-rule:nonzero;"/>
        <path d="M98.228,57.875C97.9,58.611 97.177,59.799 96.249,59.799C95.472,59.799 95.403,59.064 95.376,58.611L95.349,58.585C95.118,58.847 94.38,59.799 93.343,59.799C92.101,59.799 91.57,58.668 91.57,57.467C91.57,55.707 92.77,52.992 94.816,52.992C95.868,52.992 96.181,53.771 96.291,54.055L96.317,54.027L96.59,53.195L97.612,53.195C97.123,54.791 96.316,57.848 96.316,58.585C96.316,58.857 96.398,59.022 96.618,59.022C97.067,59.022 97.667,57.931 97.804,57.591L98.228,57.875ZM93.753,59.146C95.185,59.146 95.948,56.119 95.948,55.01C95.948,54.439 95.839,53.606 94.925,53.606C93.521,53.606 92.688,56.554 92.688,57.699C92.688,58.396 92.934,59.146 93.753,59.146" style="fill:white;fill-rule:nonzero;"/>
        <path d="M99.888,57.534C100.255,56.266 100.597,54.766 100.597,54.18C100.597,53.88 100.474,53.702 100.297,53.702C99.737,53.702 99.234,55.024 99.069,55.352L98.659,55.12C98.987,54.356 99.573,52.993 100.569,52.993C101.142,52.993 101.442,53.456 101.442,54.098C101.442,54.507 101.374,54.792 101.346,54.915L101.373,54.943C101.701,54.37 102.451,52.993 103.366,52.993C103.965,52.993 104.279,53.429 104.279,53.96C104.279,54.63 103.938,54.888 103.529,54.888C103.201,54.888 102.929,54.698 102.929,54.397C102.929,54.165 102.997,54.151 102.997,54.003C102.997,53.921 102.929,53.863 102.819,53.863C102.423,53.863 101.303,55.556 100.322,59.593L99.285,59.593L99.888,57.534Z" style="fill:white;fill-rule:nonzero;"/>
        <path d="M109.965,58.354C109.321,59.145 108.382,59.799 107.332,59.799C105.243,59.799 104.575,58.286 104.575,57.07C104.575,54.982 106.076,52.991 108.272,52.991C109.2,52.991 110.277,53.441 110.277,54.478C110.277,54.967 109.937,55.459 109.336,55.459C108.928,55.459 108.627,55.2 108.627,54.817C108.627,54.19 109.133,54.178 109.133,53.905C109.133,53.713 108.778,53.522 108.245,53.522C106.935,53.522 105.858,55.09 105.858,57.137C105.858,58.202 106.307,59.143 107.467,59.143C108.314,59.143 109.091,58.598 109.568,57.928L109.965,58.354Z" style="fill:white;fill-rule:nonzero;"/>
        <path d="M116.422,58.313C115.834,58.844 114.907,59.799 113.324,59.799C111.742,59.799 110.991,58.762 110.991,57.358C110.991,55.256 112.655,52.991 114.881,52.991C115.754,52.991 116.723,53.319 116.723,54.397C116.723,55.87 115.098,56.567 112.219,57.167C112.205,57.263 112.192,57.413 112.192,57.534C112.192,58.491 112.657,59.145 113.667,59.145C114.485,59.145 115.331,58.641 116.095,57.903L116.422,58.313ZM112.274,56.635L112.3,56.663C113.624,56.458 115.521,55.722 115.521,54.397C115.521,53.825 115.151,53.524 114.648,53.524C113.174,53.524 112.355,55.584 112.274,56.635" style="fill:white;fill-rule:nonzero;"/>
        <path d="M118.226,49.937C119.222,49.922 120.027,49.84 120.668,49.747L120.776,49.896L118.894,57.467C118.786,57.916 118.689,58.191 118.689,58.478C118.689,58.847 118.839,59.023 119.057,59.023C119.644,59.023 120.286,57.793 120.517,57.318L120.967,57.523C120.613,58.34 119.821,59.732 118.798,59.732C117.98,59.732 117.652,59.172 117.652,58.534C117.652,58.068 117.816,57.441 118.036,56.566L119.004,52.625C119.168,51.943 119.304,51.329 119.304,50.988C119.304,50.549 119.073,50.467 118.416,50.467L118.104,50.467L118.226,49.937Z" style="fill:white;fill-rule:nonzero;"/>
        <path d="M125.428,52.991C127.078,52.991 128.088,54.192 128.088,55.802C128.088,57.769 126.643,59.8 124.404,59.8C122.631,59.8 121.785,58.587 121.785,57.14C121.785,54.915 123.271,52.991 125.428,52.991M124.432,59.269C126.287,59.269 126.887,56.472 126.887,55.394C126.887,54.316 126.479,53.525 125.332,53.525C123.668,53.525 122.986,56.13 122.986,57.497C122.986,58.423 123.367,59.269 124.432,59.269" style="fill:white;fill-rule:nonzero;"/>
        <path d="M136.586,57.659C136.107,58.546 135.44,59.731 134.334,59.731C133.598,59.731 133.283,59.159 133.283,58.423C133.283,57.782 133.556,57.126 133.966,56.102C134.319,55.229 134.498,54.862 134.498,54.384C134.498,53.921 134.197,53.702 133.87,53.702C132.683,53.702 131.838,55.136 131.236,57.316L130.623,59.593L129.53,59.593L130.133,57.534C130.5,56.264 130.842,54.764 130.842,54.177C130.842,53.878 130.719,53.7 130.541,53.7C129.982,53.7 129.477,55.022 129.313,55.35L128.903,55.118C129.232,54.354 129.817,52.991 130.814,52.991C131.387,52.991 131.687,53.454 131.687,54.095C131.687,54.505 131.619,54.79 131.591,54.913L131.618,54.942C132.067,54.204 132.914,52.991 134.088,52.991C134.975,52.991 135.534,53.577 135.534,54.477C135.534,55.159 135.232,55.909 134.986,56.524C134.538,57.657 134.318,58.161 134.318,58.571C134.318,58.802 134.441,59.02 134.715,59.02C135.274,59.02 135.874,57.862 136.106,57.411L136.586,57.659Z" style="fill:white;fill-rule:nonzero;"/>
        <path d="M144.062,57.875C143.734,58.611 143.011,59.799 142.082,59.799C141.306,59.799 141.237,59.064 141.21,58.611L141.183,58.585C140.951,58.847 140.213,59.799 139.177,59.799C137.934,59.799 137.404,58.668 137.404,57.467C137.404,55.707 138.605,52.992 140.65,52.992C141.702,52.992 142.015,53.771 142.124,54.055L142.152,54.027L142.424,53.195L143.446,53.195C142.957,54.791 142.151,57.848 142.151,58.585C142.151,58.857 142.232,59.022 142.451,59.022C142.901,59.022 143.502,57.931 143.638,57.591L144.062,57.875ZM139.587,59.146C141.02,59.146 141.784,56.119 141.784,55.01C141.784,54.439 141.675,53.606 140.76,53.606C139.355,53.606 138.523,56.554 138.523,57.699C138.522,58.396 138.769,59.146 139.587,59.146" style="fill:white;fill-rule:nonzero;"/>
    </g>
</svg>
